<svg width="64" height="59" viewBox="0 0 64 59" fill="none" xmlns="http://www.w3.org/2000/svg">
<path fill-rule="evenodd" clip-rule="evenodd" d="M10.5808 0.190268C8.20544 0.684143 5.3838 2.82502 3.24628 5.75527C-0.151988 10.414 -0.834927 13.9299 0.975643 17.4456C2.0557 19.543 3.55365 20.7628 6.50986 21.9521L6.79725 22.0678L6.3544 22.9728C3.44905 28.9088 2.47411 35.741 3.7162 41.4625C4.63332 45.6873 6.8573 49.2065 10.296 51.8744C14.3528 55.0216 19.5518 57.1178 25.8078 58.128C34.9352 59.6021 45.2638 57.4145 52.3607 52.5043C53.5053 51.7123 56.0687 49.2009 56.7902 48.1645C58.2337 46.0911 59.1184 44.1116 59.7104 41.6303C60.6791 37.5691 60.3975 32.2645 58.9737 27.7553C58.4352 26.0499 57.4935 23.6753 56.9356 22.6161L56.632 22.0396L57.5604 21.6931C58.7834 21.2368 60.267 20.2809 61.0483 19.4463C63.359 16.9771 64.057 13.4794 62.8485 10.4251C61.7697 7.69927 59.9032 4.99714 57.7195 3.00089C55.9318 1.36652 54.7462 0.679018 52.9707 0.247143C48.8146 -0.763982 44.5448 1.37539 41.9152 5.78652C41.6794 6.18189 41.4401 6.50527 41.3831 6.50527C41.3262 6.50527 40.7835 6.28552 40.1772 6.01702C38.0588 5.07877 35.9321 4.65652 32.7672 4.54564C28.7386 4.40452 25.8616 4.87127 22.8578 6.15314C22.3843 6.35527 21.9805 6.47389 21.9605 6.41689C21.9406 6.35977 21.5584 5.77977 21.1112 5.12789C20.6225 4.41527 19.7977 3.46764 19.0425 2.75127C17.9858 1.74877 17.5883 1.46552 16.538 0.966143C15.8451 0.636643 14.8804 0.291893 14.3698 0.191143C13.2632 -0.0272324 11.6285 -0.0276074 10.5808 0.190268ZM28.5847 7.83239C24.1881 8.45927 19.4973 11.007 15.7107 14.8246C11.5267 19.043 8.28744 25.1464 6.95744 31.3178C6.42746 33.7765 6.33179 37.3114 6.72905 39.7509C6.97045 41.2335 7.75654 43.6858 8.34842 44.8029C9.76029 47.4678 12.1283 49.681 15.5359 51.5206C21.8216 54.9139 29.4215 56.1616 37.1142 55.0631C42.6991 54.2656 48.6082 51.7455 51.9511 48.7355C54.3742 46.5538 55.6802 44.2664 56.5743 40.6378C57.0638 38.6509 57.1459 35.2361 56.7632 32.7684C56.1825 29.023 54.74 24.9565 52.7973 21.5884C50.6745 17.9079 48.1557 14.9266 45.1198 12.501C42.7562 10.6126 39.5828 8.98114 36.8765 8.26314C34.586 7.65552 31.0971 7.47427 28.5847 7.83239ZM11.873 24.8751C11.7284 24.9324 11.4327 25.1575 11.2159 25.3754C10.8527 25.7404 10.818 25.8545 10.7753 26.8284C10.7166 28.163 10.7873 28.4184 11.3686 28.9714L11.8402 29.4199L11.7554 30.5564C11.6232 32.3279 11.8414 34.012 12.3238 34.9441C13.1116 36.4665 14.5127 37.4456 16.4723 37.8434C18.3638 38.2274 22.802 37.7503 24.2722 37.0049C26.1276 36.0641 28.2568 33.3703 29.4938 30.3985C29.8755 29.4814 30.0683 29.1778 30.3881 28.9904C31.9793 28.0581 33.2856 28.5636 34.003 30.3889C35.0791 33.1268 37.6675 36.3768 39.4034 37.1693C39.9739 37.4298 40.5879 37.5525 42.3174 37.7523C45.8574 38.161 47.0377 38.0814 48.6678 37.3241C50.1501 36.6356 51.0436 35.6729 51.4975 34.2749C51.7135 33.6095 51.7636 33.0939 51.7711 31.454L51.7803 29.4474L52.2247 28.9795C52.7799 28.3949 52.8458 28.1436 52.7879 26.8303C52.7476 25.9125 52.6989 25.7311 52.413 25.4366C51.7141 24.7161 52.8957 24.7546 31.6873 24.7631C20.934 24.7675 12.0175 24.8179 11.873 24.8751ZM29.022 39.01C27.7937 39.1535 26.0223 39.6664 25.56 40.0123C24.845 40.5474 25.1495 41.0121 26.788 41.8868C27.3301 42.1761 28.4094 42.8054 29.1863 43.2851L30.5989 44.1574V46.748C30.5989 48.1729 30.5702 49.366 30.5349 49.3995C30.4376 49.4921 28.6403 49.267 27.9707 49.0783C26.7688 48.7396 26.0621 48.3281 25.1068 47.411C24.2271 46.5666 24.1091 46.494 23.6743 46.5293C22.9874 46.585 22.6512 47.0425 22.8631 47.6333C23.1869 48.5365 24.1512 49.6249 25.1968 50.2671C27.8921 51.9228 34.5008 52.0391 37.7315 50.4878C39.192 49.7865 40.5861 48.2053 40.5861 47.2501C40.5861 46.811 40.2078 46.5053 39.6647 46.5053C39.2904 46.5053 39.0911 46.6373 38.3436 47.3799C37.7197 47.9999 37.2198 48.363 36.6265 48.627C35.6828 49.0471 33.9327 49.5053 33.2718 49.5053H32.8329V46.8169V44.1286L33.7199 43.588C34.2077 43.2906 35.4135 42.5884 36.3992 42.0275C37.3851 41.4666 38.2276 40.9188 38.2714 40.8099C38.5159 40.204 37.2102 39.4751 35.264 39.1311C34.2033 38.9436 30.2462 38.8669 29.022 39.01Z" fill="#F8FAFC"/>
</svg>
